<?xml version="1.0" encoding="UTF-8"?>
<svg id="Layer_1" data-name="Layer 1" xmlns="http://www.w3.org/2000/svg" viewBox="0 0 342 161"><defs><style>.cls-1{fill:#fff;}</style></defs><path class="cls-1" d="M71.9,37.17V59.11h-15s-25.71-.46-26.32,23.6,28.29,24.14,28.29,24.14H84.12a.94.94,0,0,0,.94-.94V48.74a11.75,11.75,0,0,1,4-9c2.51-2.11,6.55-4,13-4.2a19.12,19.12,0,0,1,2.27.06c3.18.25,11.27,1.32,14.26,5.67l30.11,44.47V37l29.35.3V118.1s-1.52,10.29-13.47,11.5c0,0-10.13,1.66-16.34-5.6L114,85.13l.31,43-63.84-.15S6.7,128.24.05,85.88c0,0-3.63-45.68,53.85-48.56Z"/><path class="cls-1" d="M149,139v22h31.69s16-.45,19.82-2.27c0,0,18.15-3.33,20.12-22.39V75.83a.38.38,0,0,1,.69-.21l29.87,43.17s7.71,12.86,19.81,10.59a21.75,21.75,0,0,0,10-4.19,9.91,9.91,0,0,0,3.5-7.62l.58-80.46H256.22V85.26a1.23,1.23,0,0,1-1.71-.5L228.08,43.31s-4.23-7.87-18.35-7.77c0,0-14.32-1-17.55,9.69v86.12s-.2,7.46-10,7.66Z"/><path class="cls-1" d="M85.13,14.91V.19H318.29a4.6,4.6,0,0,1,4.41,5.09V36.37h19.07L323.08,62.84v92.35s-.22,6.58-5.37,5.52h-85V145.89h72.61s2.27-.15,2.27-2V62.31l9.15-12.71h-9V16.7s-.38-1.82-1.89-1.66Z"/></svg>
